<?xml version="1.0" standalone="no"?>
<!DOCTYPE svg PUBLIC "-//W3C//DTD SVG 20010904//EN"
 "http://www.w3.org/TR/2001/REC-SVG-20010904/DTD/svg10.dtd">
<svg version="1.0" xmlns="http://www.w3.org/2000/svg"
 width="1024.000000pt" height="1024.000000pt" viewBox="0 0 1024.000000 1024.000000"
 preserveAspectRatio="xMidYMid meet">
<metadata>
Created by potrace 1.11, written by Peter Selinger 2001-2013
</metadata>
<g transform="translate(0.000000,1024.000000) scale(0.100000,-0.100000)"
fill="#000000" stroke="none">
<path d="M7086 9843 c-3 -3 -67 -6 -144 -8 -77 -2 -166 -6 -198 -9 -73 -7
-199 -18 -239 -21 -16 -1 -37 -5 -45 -8 -8 -3 -39 -8 -69 -12 -30 -3 -64 -8
-75 -10 -12 -3 -32 -7 -46 -10 -27 -5 -149 -34 -165 -39 -5 -1 -30 -8 -55 -15
-25 -7 -51 -18 -57 -23 -7 -6 -13 -8 -13 -4 0 5 -43 -10 -134 -47 -61 -25
-281 -139 -298 -154 -24 -22 -51 -114 -38 -127 5 -5 10 -6 10 -2 0 5 8 2 17
-5 9 -8 14 -9 10 -3 -9 16 18 25 32 11 8 -8 11 -7 11 3 0 7 3 10 7 7 3 -4 12
-2 20 4 10 9 13 8 13 -2 0 -12 2 -12 9 0 5 8 16 11 24 8 8 -3 18 -3 21 1 4 3
17 7 29 9 16 2 12 -3 -13 -15 -19 -10 -47 -26 -62 -36 -15 -10 -32 -15 -38
-11 -6 4 -9 1 -8 -7 2 -7 -3 -12 -9 -11 -7 2 -13 -4 -13 -12 0 -8 -4 -15 -9
-15 -5 0 -11 -12 -14 -27 -3 -16 -9 -40 -12 -54 -6 -24 -4 -27 24 -31 17 -2
31 -2 31 2 0 7 37 12 107 14 22 0 39 4 36 9 -2 4 6 7 19 8 13 1 34 2 48 4 14
1 51 5 84 9 32 3 62 8 66 11 5 3 16 -5 24 -17 9 -12 16 -18 16 -12 0 5 -5 15
-12 22 -9 9 -2 12 32 13 25 1 68 2 95 3 46 1 50 -1 49 -21 -1 -13 2 -20 7 -18
4 3 6 15 4 28 -4 21 -1 22 54 22 33 0 57 -4 54 -9 -4 -5 0 -6 8 -1 17 11 50
12 66 2 6 -4 14 -3 18 3 4 6 11 7 17 4 6 -4 34 -9 62 -11 28 -2 65 -8 81 -13
17 -5 42 -11 58 -12 15 -1 27 -5 27 -8 0 -3 11 -7 25 -8 14 -1 38 -8 54 -17
16 -8 31 -11 35 -8 3 4 6 1 6 -6 0 -7 4 -10 9 -6 5 3 16 -2 24 -10 12 -11 17
-12 20 -2 4 9 6 9 6 0 1 -7 8 -13 16 -13 9 0 18 -7 22 -16 5 -13 7 -13 14 -2
7 10 9 11 9 0 0 -7 4 -11 10 -7 5 3 17 -2 27 -12 10 -10 25 -18 33 -18 8 0 14
-5 13 -12 -2 -8 4 -10 14 -6 12 5 14 3 8 -7 -5 -8 -4 -11 3 -6 16 10 82 -31
83 -51 0 -4 3 -10 6 -13 4 -3 3 1 -1 8 -4 6 -2 12 4 12 6 0 13 -7 16 -15 4 -8
13 -15 22 -15 8 0 13 -3 9 -6 -3 -3 8 -20 24 -36 16 -17 29 -38 29 -46 0 -9 3
-13 6 -9 4 3 15 -10 25 -31 22 -43 23 -46 7 -36 -7 4 -8 3 -4 -5 4 -6 11 -9
16 -6 8 5 25 -23 22 -37 -1 -5 2 -8 7 -8 6 0 8 -9 6 -20 -2 -11 0 -18 4 -15
12 7 24 -26 14 -36 -4 -4 -30 -9 -58 -12 -50 -6 -83 -12 -140 -24 -16 -3 -39
-7 -50 -8 -27 -3 -175 -24 -206 -30 -66 -13 -87 -17 -119 -20 -89 -10 -123
-16 -130 -20 -5 -3 -30 -8 -57 -11 -26 -3 -59 -7 -72 -9 -13 -2 -45 -7 -70
-11 -25 -4 -55 -9 -66 -11 -33 -7 -68 -12 -110 -17 -22 -3 -40 -5 -40 -6 0 -3
-38 -9 -85 -14 -25 -2 -45 -5 -45 -6 0 -2 -33 -8 -85 -15 -25 -3 -54 -8 -65
-10 -19 -4 -73 -13 -120 -19 -18 -3 -81 -13 -125 -21 -8 -1 -40 -6 -70 -11
-30 -4 -57 -8 -60 -9 -3 -1 -27 -4 -55 -8 -82 -12 -119 -18 -140 -22 -11 -2
-38 -6 -60 -10 -22 -3 -51 -8 -65 -11 -14 -2 -41 -6 -60 -9 -19 -3 -46 -7 -60
-10 -14 -3 -45 -8 -70 -11 -25 -3 -52 -7 -61 -10 -9 -2 -34 -6 -55 -9 -22 -2
-55 -7 -74 -10 -19 -4 -46 -8 -60 -10 -14 -2 -54 -9 -90 -15 -67 -11 -90 -15
-163 -25 -23 -3 -49 -8 -57 -10 -8 -2 -35 -7 -60 -10 -25 -2 -56 -7 -70 -10
-14 -3 -45 -8 -70 -11 -25 -3 -52 -8 -62 -9 -21 -4 -107 -18 -133 -21 -11 -1
-20 -3 -20 -4 0 -1 -9 -3 -20 -4 -57 -8 -132 -19 -150 -22 -11 -3 -36 -6 -55
-9 -19 -2 -35 -5 -35 -6 0 -1 -13 -3 -30 -5 -16 -1 -59 -8 -95 -15 -36 -6 -78
-13 -95 -15 -30 -4 -104 -16 -185 -30 -25 -4 -64 -8 -87 -8 -22 -1 -39 -4 -36
-8 2 -5 -10 -9 -26 -9 -17 -1 -34 -2 -38 -3 -26 -6 -113 -20 -138 -22 -16 -1
-32 -3 -35 -4 -3 -2 -9 -4 -15 -5 -5 -1 -28 -4 -50 -8 -22 -4 -56 -9 -75 -12
-19 -3 -48 -7 -65 -10 -16 -2 -41 -6 -55 -9 -14 -2 -43 -7 -65 -10 -22 -3 -51
-8 -65 -10 -14 -3 -41 -7 -60 -10 -19 -3 -48 -7 -65 -10 -122 -22 -229 -36
-242 -32 -8 3 -11 1 -8 -4 4 -6 -9 -11 -29 -11 -20 -1 -39 -2 -43 -3 -32 -8
-114 -20 -144 -21 -20 -1 -40 -4 -45 -8 -15 -9 -155 -29 -214 -31 -19 -1 -37
-4 -40 -7 -3 -4 -25 -9 -50 -13 -25 -3 -58 -8 -75 -11 -16 -2 -46 -7 -65 -10
-19 -2 -46 -7 -60 -10 -14 -3 -43 -8 -65 -10 -22 -3 -51 -7 -65 -10 -14 -3
-41 -8 -60 -11 -19 -2 -46 -7 -60 -9 -14 -2 -43 -7 -65 -10 -23 -3 -52 -7 -65
-10 -13 -3 -42 -7 -65 -11 -22 -3 -42 -8 -44 -10 -2 -2 -11 2 -19 9 -10 7 -13
8 -9 1 5 -8 -12 -14 -50 -19 -32 -4 -66 -9 -77 -11 -11 -2 -38 -6 -61 -10 -22
-3 -70 -11 -107 -18 -49 -9 -71 -10 -79 -2 -9 8 -10 8 -5 -1 7 -13 0 -15 -66
-17 -16 0 -28 -3 -28 -7 0 -3 -6 -6 -12 -6 -26 -1 -123 -14 -138 -18 -8 -2
-31 -7 -50 -10 -19 -3 -36 -7 -37 -9 -2 -1 1 -27 7 -57 5 -30 12 -74 15 -99 3
-25 8 -56 10 -70 2 -14 7 -45 10 -70 8 -49 13 -75 15 -75 1 0 3 -18 6 -40 2
-22 5 -49 7 -60 2 -11 -2 -26 -7 -34 -8 -11 -8 -13 0 -8 12 7 19 -17 30 -108
7 -57 10 -80 18 -115 3 -14 7 -47 10 -75 3 -27 6 -50 7 -50 1 0 3 -9 4 -20 5
-41 15 -111 20 -135 11 -57 18 -108 20 -146 1 -22 4 -45 7 -50 7 -11 20 -86
24 -134 1 -19 3 -35 4 -35 2 0 9 -36 14 -85 3 -25 15 -101 26 -170 18 -114 28
-178 34 -236 2 -11 6 -26 10 -32 4 -7 1 -12 -6 -12 -8 0 -9 -3 -3 -8 11 -8 13
-15 19 -74 3 -24 8 -52 12 -62 6 -15 4 -17 -7 -11 -12 8 -12 6 0 -9 8 -10 16
-30 17 -44 4 -39 12 -93 18 -127 4 -16 8 -48 11 -70 3 -22 7 -51 10 -65 3 -14
8 -45 11 -70 3 -25 7 -56 9 -70 11 -74 17 -109 24 -141 5 -21 4 -44 -2 -54 -7
-13 -6 -16 2 -11 11 7 12 0 14 -66 1 -16 4 -28 7 -28 3 0 7 -15 8 -33 3 -41 9
-80 20 -138 5 -25 8 -57 8 -72 -1 -15 2 -27 6 -27 4 0 8 -17 8 -38 0 -20 4
-52 10 -70 8 -30 7 -33 -8 -28 -15 5 -15 5 -1 -6 9 -7 17 -16 17 -20 1 -5 2
-9 3 -10 0 -2 2 -16 3 -33 1 -16 6 -41 10 -55 4 -14 8 -45 9 -70 2 -25 6 -51
10 -57 4 -6 3 -15 -3 -18 -7 -4 -8 -11 -1 -18 9 -12 16 -44 26 -122 3 -22 8
-49 10 -61 8 -37 16 -89 20 -135 2 -24 4 -44 5 -44 3 0 10 -42 14 -85 2 -25 7
-53 11 -63 4 -9 5 -26 2 -37 -3 -11 0 -20 6 -20 6 0 8 -3 5 -6 -4 -3 -2 -19 2
-35 5 -18 5 -27 -1 -24 -5 4 -9 2 -9 -4 0 -5 5 -11 10 -13 6 -2 12 -29 13 -61
1 -31 5 -57 8 -57 6 0 7 -5 11 -62 2 -20 6 -40 10 -44 4 -4 2 -14 -5 -22 -9
-13 -9 -14 1 -8 8 5 12 0 13 -16 2 -43 7 -93 9 -93 1 0 3 -11 5 -25 4 -34 15
-91 21 -112 3 -11 0 -18 -8 -18 -10 0 -10 -2 1 -9 7 -5 14 -27 15 -49 1 -23 5
-44 9 -48 3 -4 2 -16 -4 -27 -7 -11 -7 -17 -1 -13 14 8 21 -51 8 -65 -8 -9 -7
-10 3 -4 11 6 13 4 8 -8 -3 -10 -2 -17 2 -17 5 0 8 -18 7 -40 0 -22 2 -40 6
-40 6 0 24 -127 20 -143 -1 -4 3 -17 9 -29 9 -16 8 -19 -3 -12 -10 6 -11 5 -1
-7 6 -8 14 -38 17 -67 3 -29 8 -57 11 -62 4 -6 0 -10 -7 -10 -10 0 -10 -2 -1
-8 7 -4 15 -28 17 -52 3 -25 7 -58 10 -75 17 -97 28 -179 31 -215 0 -14 4 -31
8 -37 4 -6 8 -31 9 -57 2 -25 5 -46 8 -46 3 0 5 -22 5 -50 0 -27 3 -50 7 -50
3 0 10 -30 14 -67 10 -93 12 -108 14 -108 3 0 12 -77 13 -122 1 -22 5 -39 10
-36 4 2 7 -6 8 -19 0 -13 2 -32 4 -43 2 -11 6 -47 10 -80 4 -33 12 -68 17 -79
8 -14 7 -17 -4 -10 -10 6 -11 5 -2 -7 6 -8 12 -30 13 -49 4 -40 9 -75 11 -75
1 0 4 -18 6 -40 6 -46 18 -57 51 -44 32 12 36 11 27 -3 -5 -9 -3 -9 9 1 9 7
28 11 42 9 13 -3 22 -2 19 3 -2 4 4 7 13 7 10 0 34 3 53 7 57 12 75 11 72 -3
-1 -8 2 -11 8 -7 6 3 8 11 5 16 -4 5 2 9 12 10 10 0 27 3 38 5 22 5 74 13 116
18 14 2 31 6 38 10 6 4 11 1 11 -6 0 -8 3 -9 8 -3 4 6 12 11 19 12 32 6 72 13
113 19 25 3 56 8 70 10 58 11 108 16 147 18 22 0 39 4 36 9 -4 7 20 9 94 10
17 1 30 4 27 8 -2 4 4 8 13 8 38 1 89 7 98 12 12 6 64 12 117 13 20 1 34 4 31
9 -2 4 1 7 6 7 6 0 11 -6 11 -12 0 -8 5 -6 11 4 5 9 16 15 24 12 8 -3 20 -2
27 2 14 9 71 17 130 18 21 1 38 4 38 9 0 4 7 7 16 7 14 0 15 -2 3 -18 -12 -15
-12 -16 2 -5 9 7 19 9 23 5 4 -4 6 -2 4 5 -1 6 2 12 7 13 6 1 18 6 28 11 11 7
17 6 17 -1 0 -7 6 -8 19 0 26 13 34 13 25 -2 -4 -6 3 -4 16 5 19 13 27 14 39
4 12 -10 13 -9 6 2 -6 11 -4 13 8 8 10 -4 17 -1 17 6 0 7 3 8 8 2 10 -15 35
-18 26 -4 -5 9 -1 10 14 7 12 -4 22 -1 22 4 0 6 8 4 17 -3 11 -10 14 -10 9 -1
-5 8 1 12 18 13 14 1 29 2 34 3 19 5 119 20 137 21 11 0 26 4 33 8 6 5 12 6
12 4 0 -3 15 -1 34 3 22 5 39 3 47 -4 9 -8 10 -8 5 2 -5 7 -1 12 11 13 10 0
29 2 43 4 14 1 31 -2 38 -8 9 -7 11 -6 6 6 -4 11 0 15 13 13 10 -2 29 1 42 6
25 9 46 -6 34 -26 -3 -5 -1 -6 5 -2 6 4 8 14 5 23 -4 11 -2 14 8 11 8 -3 22
-1 32 4 12 6 17 5 17 -4 0 -9 2 -10 8 -2 9 15 53 21 69 11 8 -5 11 -3 8 5 -6
14 1 15 101 20 34 2 60 6 57 11 -2 4 10 8 26 8 55 2 66 4 78 12 16 10 35 -1
27 -15 -4 -7 -2 -8 5 -4 6 4 9 11 6 16 -3 4 10 10 28 14 61 11 132 19 164 20
18 1 33 4 33 7 0 3 12 7 28 7 25 2 41 4 105 16 67 13 102 14 114 4 10 -8 12
-8 8 4 -6 14 22 20 107 22 20 1 34 4 31 9 -2 4 5 8 16 8 12 1 27 2 34 3 6 1
15 -3 19 -9 5 -6 8 -6 8 2 0 7 7 10 17 6 11 -4 14 -3 9 5 -4 7 -1 12 9 12 10
0 13 -5 9 -12 -5 -8 -3 -8 7 -2 28 18 98 31 103 20 3 -8 7 -7 13 1 4 6 26 14
48 17 94 12 130 18 134 22 8 8 31 -18 24 -29 -3 -6 -1 -7 6 -3 9 6 9 11 1 21
-8 9 -5 14 10 18 11 3 20 1 20 -4 0 -5 5 -9 11 -9 5 0 8 4 5 9 -4 5 5 8 19 6
14 -1 25 1 25 5 0 5 7 7 15 6 17 -2 33 -16 18 -16 -5 0 -10 -6 -11 -12 0 -7
-3 -22 -6 -33 -2 -11 -5 -23 -5 -27 -1 -4 -9 -5 -18 -1 -16 5 -16 4 1 -9 15
-12 16 -17 5 -29 -8 -8 -14 -23 -13 -34 0 -11 -3 -24 -6 -30 -3 -5 -6 -43 -6
-82 1 -42 -3 -73 -9 -73 -5 0 -5 -4 2 -8 6 -4 13 -16 15 -27 1 -11 6 -22 10
-25 3 -3 8 -14 10 -25 1 -11 5 -22 8 -25 3 -3 18 -23 35 -45 16 -22 35 -46 42
-53 7 -7 13 -18 13 -23 0 -5 3 -8 8 -7 9 3 92 -52 92 -61 0 -4 12 -8 27 -9 14
-1 34 -9 43 -17 9 -8 24 -15 33 -15 9 0 17 -5 17 -10 0 -6 6 -10 13 -8 6 1 34
-4 60 -11 33 -10 44 -17 35 -22 -9 -6 -9 -9 -1 -9 6 0 15 5 18 10 4 6 11 8 16
4 6 -4 4 -13 -6 -24 -13 -14 -14 -20 -3 -26 7 -4 10 -3 5 1 -4 5 0 16 9 26 12
14 22 15 47 8 18 -6 57 -12 87 -15 30 -3 60 -10 66 -15 6 -5 14 -5 20 0 5 5
29 11 54 14 55 5 149 40 184 68 14 11 31 17 37 13 8 -5 9 -3 5 5 -10 16 24 42
44 35 12 -4 12 -3 3 7 -9 9 -8 18 8 40 16 23 49 89 54 109 9 36 29 90 34 90 3
0 7 10 7 23 1 19 5 38 18 82 2 6 6 24 10 40 4 17 10 37 13 45 3 8 7 20 8 25 2
6 8 28 14 50 6 22 11 42 11 45 5 35 51 195 57 199 5 3 8 16 7 29 -1 17 3 22
14 17 12 -4 13 -3 3 9 -18 21 -4 41 17 24 12 -10 14 -10 8 0 -4 6 -4 12 1 13
4 0 21 2 38 4 16 2 35 -1 42 -7 8 -6 16 -8 20 -4 3 3 1 6 -5 6 -7 0 -12 4 -12
9 0 4 12 7 28 7 15 -1 33 3 40 8 8 5 12 4 12 -5 0 -10 3 -11 8 -3 7 12 54 22
119 27 18 2 35 6 39 9 3 4 17 4 30 2 13 -2 24 -1 24 4 0 7 49 13 133 16 20 0
37 5 37 9 0 5 13 7 29 5 17 -2 27 0 24 4 -3 5 1 8 8 7 8 -2 30 0 49 4 52 10
112 20 135 21 11 1 26 5 33 9 7 5 12 4 12 -2 0 -6 5 -11 11 -11 5 0 7 4 4 10
-3 5 1 10 10 10 12 0 15 -5 11 -18 -5 -14 -4 -14 9 2 13 18 32 23 105 29 14 2
31 6 38 10 11 8 17 -4 13 -26 -1 -5 3 -6 8 -2 6 3 8 12 5 20 -4 9 1 14 13 13
19 0 74 8 135 22 24 5 41 4 49 -4 9 -8 10 -8 5 2 -7 12 -5 13 57 17 15 1 30 5
34 9 3 3 16 -2 27 -11 20 -17 20 -17 7 -1 -12 16 -11 18 10 19 30 2 56 5 93
13 17 3 36 0 43 -6 8 -6 13 -7 11 -2 -4 11 1 14 53 25 34 8 45 7 59 -6 12 -11
20 -13 25 -5 3 6 2 9 -3 8 -6 -2 -12 1 -13 6 -5 11 17 15 92 19 32 1 55 5 52
10 -2 4 8 7 24 6 31 -1 67 6 85 17 7 5 8 3 3 -7 -8 -12 -6 -12 8 0 9 7 17 10
17 7 0 -4 9 -2 21 4 15 9 24 8 37 -2 11 -9 14 -10 8 0 -9 16 6 16 23 0 11 -10
13 -10 7 0 -4 6 -4 12 1 13 4 0 17 2 28 4 11 2 34 5 50 7 17 2 33 8 37 13 5 6
8 5 8 -4 0 -10 3 -11 13 -3 7 6 39 12 72 14 33 2 62 6 65 10 3 4 23 8 44 10
20 1 39 5 41 8 5 9 37 6 53 -3 8 -6 10 -3 5 10 -6 16 -5 16 10 4 9 -7 17 -9
17 -4 0 6 12 9 28 8 15 -1 33 2 39 8 12 9 18 -2 14 -26 -1 -5 3 -6 8 -2 6 3 8
12 4 20 -3 11 2 15 18 16 13 0 33 3 44 6 11 2 35 5 53 5 17 0 32 5 32 12 0 6
5 4 10 -4 8 -12 10 -12 10 -1 0 9 9 12 30 9 17 -3 30 0 30 6 0 6 4 5 9 -3 6
-9 10 -10 12 -2 2 6 21 12 42 13 21 1 40 5 43 10 8 13 25 -2 18 -15 -3 -7 1
-4 9 5 8 10 33 19 58 22 24 2 45 5 47 6 4 4 21 7 42 9 16 1 19 7 16 33 -3 18
-6 33 -7 33 -1 0 -3 9 -4 20 -6 48 -14 85 -20 94 -3 6 0 11 7 11 8 0 9 3 3 8
-5 4 -11 13 -13 21 -4 19 -14 90 -16 122 -2 14 -6 31 -10 37 -4 7 -2 12 6 12
10 0 10 2 -1 9 -7 5 -15 28 -17 52 -3 42 -10 84 -14 84 -1 0 -3 11 -5 25 -4
32 -16 120 -21 143 -1 9 -6 22 -10 29 -5 7 -3 8 6 3 10 -6 11 -4 4 6 -4 8 -9
20 -11 28 -1 8 -4 26 -8 39 -4 15 -2 21 5 17 5 -3 10 -2 10 3 0 6 -6 12 -13
15 -8 3 -13 16 -12 29 1 12 -2 31 -6 40 -6 10 -5 19 1 23 7 4 8 11 1 18 -5 7
-12 29 -15 51 -4 21 -9 43 -12 48 -3 5 2 19 13 31 15 19 16 20 1 8 -16 -12
-18 -11 -18 8 0 30 -1 34 -11 53 -6 10 -5 19 1 23 5 3 10 12 10 18 0 7 -4 6
-10 -3 -10 -15 -11 -9 -14 73 0 15 -3 27 -6 27 -3 0 -6 9 -7 21 -1 12 -9 64
-19 118 -9 53 -18 110 -20 126 -2 17 -6 41 -9 55 -9 42 -18 103 -19 137 0 18
-4 33 -7 33 -3 0 -6 6 -6 13 -1 15 -11 84 -17 117 -15 78 -16 101 -4 94 7 -4
6 1 -3 12 -9 10 -20 42 -23 69 -4 28 -8 64 -11 80 -2 17 -7 46 -9 65 -3 19 -7
45 -10 56 -2 12 -7 37 -10 55 -3 19 -9 54 -14 79 -5 25 -8 56 -7 68 1 12 -1
22 -5 22 -3 0 -7 19 -9 42 -1 23 -5 46 -8 52 -4 5 -8 28 -9 50 -2 23 -6 52 -9
64 -3 13 -8 43 -11 65 -3 23 -9 58 -14 77 -4 19 -8 42 -8 50 0 8 -2 29 -6 45
-6 27 -10 51 -21 125 -2 14 -7 48 -11 75 -3 28 -8 53 -11 57 -6 11 -18 98 -18
140 0 20 -4 34 -9 31 -5 -3 -7 8 -4 26 2 17 0 31 -5 31 -5 0 -6 7 -3 16 3 9 3
21 -1 27 -4 7 -8 18 -9 27 -1 8 -5 33 -9 55 -4 22 -8 59 -10 81 -1 23 -5 47
-9 53 -4 6 -4 16 -1 21 3 6 2 10 -3 10 -5 0 -9 18 -10 41 -1 22 -6 49 -12 59
-7 13 -7 21 0 25 7 4 7 11 2 18 -5 7 -13 35 -18 62 -8 54 -9 58 -18 123 -3 24
-8 53 -11 65 -3 12 -7 36 -9 52 -2 17 -7 48 -11 70 -3 22 -8 51 -10 64 -2 13
-7 26 -9 29 -3 3 0 12 7 20 10 13 9 14 -1 8 -9 -5 -12 1 -12 21 0 46 -4 73
-10 73 -4 0 -7 6 -7 13 0 24 -14 123 -21 157 -5 19 -8 49 -7 67 0 17 -2 30 -6
28 -3 -3 -9 19 -12 48 -4 28 -9 67 -12 85 -3 17 -7 44 -9 60 -3 15 -7 38 -10
52 -3 13 -8 42 -12 65 -3 22 -8 42 -10 44 -2 2 2 11 9 19 9 13 9 14 0 8 -10
-5 -13 3 -15 31 -1 43 -3 52 -11 73 -8 21 -27 155 -30 217 -1 17 -5 29 -9 27
-4 -3 -6 13 -5 35 1 22 -1 37 -5 35 -4 -3 -7 5 -7 18 1 13 -4 47 -10 77 -6 29
-8 57 -5 62 3 5 1 9 -4 9 -5 0 -9 6 -9 13 -1 23 -12 112 -18 137 -11 45 -18
94 -19 123 -1 15 -3 27 -6 27 -6 0 -12 46 -14 107 0 22 -4 39 -8 36 -5 -2 -8
10 -8 27 0 25 4 31 16 26 8 -3 12 -2 9 4 -3 6 -14 10 -23 10 -14 0 -15 2 -2 9
8 6 18 7 22 5 4 -3 8 0 8 5 0 6 7 11 15 11 8 0 15 5 15 12 0 6 10 3 22 -8 14
-12 18 -13 10 -3 -15 19 -4 33 14 18 10 -9 15 -7 20 5 3 9 10 13 15 10 5 -3 7
-11 3 -17 -3 -7 1 -4 9 5 10 13 16 15 25 6 7 -7 12 -8 12 -2 0 19 58 3 69 -19
7 -13 10 -15 7 -4 -5 14 -1 16 22 11 54 -12 62 -16 56 -26 -4 -7 -2 -8 4 -4
14 8 82 -22 82 -36 0 -5 4 -7 8 -4 5 3 15 -4 22 -15 8 -10 18 -19 22 -19 14 0
48 -34 48 -47 0 -7 6 -12 13 -11 6 2 11 -5 11 -14 -1 -10 2 -16 6 -13 4 3 21
-12 36 -32 48 -62 93 -105 104 -98 5 3 10 3 10 -2 0 -4 14 -9 32 -10 17 -1 34
-6 37 -10 3 -5 15 -9 26 -10 11 -1 29 -4 40 -7 11 -2 22 -5 24 -5 2 -1 -2 -7
-8 -15 -9 -11 -9 -16 0 -22 7 -4 9 -3 6 3 -4 6 0 16 8 23 9 8 15 8 15 2 0 -6
8 -9 18 -7 9 1 23 -2 30 -8 6 -5 12 -7 12 -4 0 3 21 -2 48 -10 84 -26 111 -25
138 5 13 15 24 32 24 38 0 6 7 17 15 24 8 7 15 21 15 31 0 11 5 19 10 19 6 0
9 3 9 8 -3 19 2 43 9 39 4 -3 8 7 8 21 1 15 7 41 14 57 7 17 14 35 16 40 10
36 16 55 26 98 7 26 16 47 19 47 4 0 5 10 1 22 -3 11 -1 19 4 16 5 -4 10 10
12 30 1 19 7 41 13 49 6 7 9 13 6 13 -4 0 0 18 8 41 8 22 14 43 13 47 -3 22
16 71 26 65 6 -4 5 0 -2 9 -7 9 -9 19 -5 21 5 3 10 20 11 38 1 18 8 39 15 48
7 9 7 12 1 8 -7 -4 -10 2 -6 18 2 14 7 23 11 21 3 -2 5 12 5 32 -1 21 1 41 4
46 6 11 3 103 -4 128 -5 17 -118 58 -161 58 -11 0 -23 3 -27 7 -4 5 -31 14
-59 21 -29 7 -56 14 -62 15 -5 1 -16 6 -22 10 -7 5 -13 6 -13 4 0 -3 -19 1
-43 8 -39 12 -51 11 -103 -6 -32 -11 -68 -24 -79 -29 -66 -29 -121 -39 -199
-35 -46 1 -92 7 -102 12 -10 5 -46 23 -78 39 -80 39 -150 97 -272 222 -84 87
-152 138 -194 146 -3 1 -21 7 -40 15 -96 36 -139 51 -169 57 -31 6 -242 64
-261 71 -8 4 -21 5 -29 4 -8 -1 -10 2 -5 10 4 8 3 10 -4 5 -6 -4 -31 -2 -54 5
-24 6 -51 13 -60 15 -19 4 -56 13 -73 18 -5 1 -37 8 -70 15 -33 7 -67 15 -75
18 -8 2 -37 7 -65 9 -27 3 -66 7 -85 9 -36 5 -129 14 -190 20 -19 1 -37 4 -40
5 -3 1 -9 1 -15 0 -27 -6 -155 -4 -155 3 0 4 -8 3 -19 -2 -10 -6 -20 -8 -23
-6 -6 6 -77 13 -82 8z"/>
<path d="M6193 9223 c4 -3 1 -13 -6 -22 -11 -14 -10 -14 5 -2 16 12 16 31 1
31 -4 0 -3 -3 0 -7z"/>
<path d="M6473 9205 c0 -8 4 -12 9 -9 5 3 6 10 3 15 -9 13 -12 11 -12 -6z"/>
<path d="M5920 9200 c-9 -6 -10 -10 -3 -10 6 0 15 5 18 10 8 12 4 12 -15 0z"/>
<path d="M6335 9200 c3 -5 8 -10 11 -10 2 0 4 5 4 10 0 6 -5 10 -11 10 -5 0
-7 -4 -4 -10z"/>
<path d="M6475 9169 c-4 -6 -5 -12 -2 -15 2 -3 7 2 10 11 7 17 1 20 -8 4z"/>
<path d="M5737 9155 c-4 -8 -3 -16 1 -19 4 -3 9 4 9 15 2 23 -3 25 -10 4z"/>
<path d="M5910 9159 c0 -5 5 -7 10 -4 6 3 10 8 10 11 0 2 -4 4 -10 4 -5 0 -10
-5 -10 -11z"/>
<path d="M6035 9149 c-4 -6 -5 -12 -2 -15 2 -3 7 2 10 11 7 17 1 20 -8 4z"/>
<path d="M6615 9151 c-3 -5 -2 -12 3 -15 5 -3 9 1 9 9 0 17 -3 19 -12 6z"/>
<path d="M5770 9140 c0 -5 5 -10 11 -10 5 0 7 5 4 10 -3 6 -8 10 -11 10 -2 0
-4 -4 -4 -10z"/>
<path d="M5856 9142 c-3 -5 1 -9 9 -9 8 0 12 4 9 9 -3 4 -7 8 -9 8 -2 0 -6 -4
-9 -8z"/>
<path d="M5933 9143 c4 -3 1 -13 -6 -22 -11 -14 -10 -14 5 -2 16 12 16 31 1
31 -4 0 -3 -3 0 -7z"/>
<path d="M6485 9140 c-3 -6 1 -7 9 -4 18 7 21 14 7 14 -6 0 -13 -4 -16 -10z"/>
<path d="M6575 9140 c3 -5 8 -10 11 -10 2 0 4 5 4 10 0 6 -5 10 -11 10 -5 0
-7 -4 -4 -10z"/>
<path d="M6730 9099 c0 -5 5 -7 10 -4 6 3 10 8 10 11 0 2 -4 4 -10 4 -5 0 -10
-5 -10 -11z"/>
<path d="M6775 9080 c-3 -5 -1 -10 4 -10 6 0 11 5 11 10 0 6 -2 10 -4 10 -3 0
-8 -4 -11 -10z"/>
<path d="M6549 9043 c-13 -16 -12 -17 4 -4 9 7 17 15 17 17 0 8 -8 3 -21 -13z"/>
<path d="M6916 8998 c3 -5 10 -6 15 -3 13 9 11 12 -6 12 -8 0 -12 -4 -9 -9z"/>
<path d="M6970 8980 c0 -5 5 -10 11 -10 5 0 7 5 4 10 -3 6 -8 10 -11 10 -2 0
-4 -4 -4 -10z"/>
<path d="M7055 8940 c3 -5 8 -10 11 -10 2 0 4 5 4 10 0 6 -5 10 -11 10 -5 0
-7 -4 -4 -10z"/>
<path d="M7115 8881 c-3 -5 -2 -12 3 -15 5 -3 9 1 9 9 0 17 -3 19 -12 6z"/>
<path d="M7114 8833 c16 -20 36 -23 36 -6 0 4 -3 3 -7 0 -3 -4 -16 1 -27 10
-21 18 -21 18 -2 -4z"/>
<path d="M8696 8358 c3 -4 11 -5 19 -1 21 7 19 12 -4 10 -11 0 -18 -5 -15 -9z"/>
<path d="M8776 8338 c3 -4 11 -5 19 -1 21 7 19 12 -4 10 -11 0 -18 -5 -15 -9z"/>
<path d="M8895 8340 c3 -5 8 -10 11 -10 2 0 4 5 4 10 0 6 -5 10 -11 10 -5 0
-7 -4 -4 -10z"/>
<path d="M8936 8342 c-3 -4 4 -9 15 -9 23 -2 25 3 4 10 -8 4 -16 3 -19 -1z"/>
<path d="M9056 8278 c3 -5 10 -6 15 -3 13 9 11 12 -6 12 -8 0 -12 -4 -9 -9z"/>
<path d="M9155 8191 c-3 -5 -2 -12 3 -15 5 -3 9 1 9 9 0 17 -3 19 -12 6z"/>
<path d="M9876 8127 c3 -10 9 -15 12 -12 3 3 0 11 -7 18 -10 9 -11 8 -5 -6z"/>
<path d="M9295 8060 c-3 -5 -1 -10 4 -10 6 0 11 5 11 10 0 6 -2 10 -4 10 -3 0
-8 -4 -11 -10z"/>
<path d="M9347 8059 c7 -7 15 -10 18 -7 3 3 -2 9 -12 12 -14 6 -15 5 -6 -5z"/>
<path d="M9350 8019 c0 -5 5 -7 10 -4 6 3 10 8 10 11 0 2 -4 4 -10 4 -5 0 -10
-5 -10 -11z"/>
<path d="M9490 7999 c0 -5 5 -7 10 -4 6 3 10 8 10 11 0 2 -4 4 -10 4 -5 0 -10
-5 -10 -11z"/>
<path d="M9570 7979 c0 -5 5 -7 10 -4 6 3 10 8 10 11 0 2 -4 4 -10 4 -5 0 -10
-5 -10 -11z"/>
<path d="M9646 7958 c3 -5 10 -6 15 -3 13 9 11 12 -6 12 -8 0 -12 -4 -9 -9z"/>
<path d="M9710 7960 c0 -5 5 -10 11 -10 5 0 7 5 4 10 -3 6 -8 10 -11 10 -2 0
-4 -4 -4 -10z"/>
<path d="M9555 7920 c-3 -5 -1 -10 4 -10 6 0 11 5 11 10 0 6 -2 10 -4 10 -3 0
-8 -4 -11 -10z"/>
<path d="M280 6880 c-9 -6 -10 -10 -3 -10 6 0 15 5 18 10 8 12 4 12 -15 0z"/>
<path d="M670 4206 c0 -2 7 -7 16 -10 8 -3 12 -2 9 4 -6 10 -25 14 -25 6z"/>
<path d="M831 3173 c7 -12 15 -20 18 -17 3 2 -3 12 -13 22 -17 16 -18 16 -5
-5z"/>
<path d="M9387 2099 c7 -7 15 -10 18 -7 3 3 -2 9 -12 12 -14 6 -15 5 -6 -5z"/>
<path d="M9295 2071 c-3 -5 -2 -12 3 -15 5 -3 9 1 9 9 0 17 -3 19 -12 6z"/>
<path d="M9374 2062 c4 -3 14 -7 22 -8 9 -1 13 0 10 4 -4 3 -14 7 -22 8 -9 1
-13 0 -10 -4z"/>
<path d="M9195 2049 c-4 -6 -5 -12 -2 -15 2 -3 7 2 10 11 7 17 1 20 -8 4z"/>
<path d="M8916 2038 c3 -5 10 -6 15 -3 13 9 11 12 -6 12 -8 0 -12 -4 -9 -9z"/>
<path d="M9010 2019 c0 -5 5 -7 10 -4 6 3 10 8 10 11 0 2 -4 4 -10 4 -5 0 -10
-5 -10 -11z"/>
<path d="M8913 2005 c0 -8 4 -12 9 -9 5 3 6 10 3 15 -9 13 -12 11 -12 -6z"/>
<path d="M8815 1980 c3 -5 8 -10 11 -10 2 0 4 5 4 10 0 6 -5 10 -11 10 -5 0
-7 -4 -4 -10z"/>
<path d="M8610 1940 c0 -5 5 -10 11 -10 5 0 7 5 4 10 -3 6 -8 10 -11 10 -2 0
-4 -4 -4 -10z"/>
<path d="M8273 1925 c0 -8 4 -12 9 -9 5 3 6 10 3 15 -9 13 -12 11 -12 -6z"/>
<path d="M8810 1920 c0 -5 5 -10 11 -10 5 0 7 5 4 10 -3 6 -8 10 -11 10 -2 0
-4 -4 -4 -10z"/>
<path d="M8065 1900 c-3 -6 1 -7 9 -4 18 7 21 14 7 14 -6 0 -13 -4 -16 -10z"/>
<path d="M8356 1898 c3 -4 11 -5 19 -1 21 7 19 12 -4 10 -11 0 -18 -5 -15 -9z"/>
<path d="M8139 1888 c-5 -18 -6 -38 -1 -34 7 8 12 36 6 36 -2 0 -4 -1 -5 -2z"/>
<path d="M8275 1880 c-3 -5 -1 -10 4 -10 6 0 11 5 11 10 0 6 -2 10 -4 10 -3 0
-8 -4 -11 -10z"/>
<path d="M8050 1860 c0 -5 5 -10 11 -10 5 0 7 5 4 10 -3 6 -8 10 -11 10 -2 0
-4 -4 -4 -10z"/>
<path d="M7935 1840 c-3 -5 -1 -10 4 -10 6 0 11 5 11 10 0 6 -2 10 -4 10 -3 0
-8 -4 -11 -10z"/>
<path d="M7735 1820 c3 -5 8 -10 11 -10 2 0 4 5 4 10 0 6 -5 10 -11 10 -5 0
-7 -4 -4 -10z"/>
<path d="M7770 1819 c0 -5 5 -7 10 -4 6 3 10 8 10 11 0 2 -4 4 -10 4 -5 0 -10
-5 -10 -11z"/>
<path d="M7815 1820 c3 -5 8 -10 11 -10 2 0 4 5 4 10 0 6 -5 10 -11 10 -5 0
-7 -4 -4 -10z"/>
<path d="M7893 1809 c-2 -23 3 -25 10 -4 4 8 3 16 -1 19 -4 3 -9 -4 -9 -15z"/>
<path d="M7646 1798 c3 -5 10 -6 15 -3 13 9 11 12 -6 12 -8 0 -12 -4 -9 -9z"/>
<path d="M7695 1800 c-3 -5 -1 -10 4 -10 6 0 11 5 11 10 0 6 -2 10 -4 10 -3 0
-8 -4 -11 -10z"/>
<path d="M8346 1798 c3 -5 10 -6 15 -3 13 9 11 12 -6 12 -8 0 -12 -4 -9 -9z"/>
<path d="M7490 1779 c0 -5 5 -7 10 -4 6 3 10 8 10 11 0 2 -4 4 -10 4 -5 0 -10
-5 -10 -11z"/>
<path d="M6995 1740 c-3 -5 -1 -10 4 -10 6 0 11 5 11 10 0 6 -2 10 -4 10 -3 0
-8 -4 -11 -10z"/>
<path d="M7290 1740 c0 -5 5 -10 11 -10 5 0 7 5 4 10 -3 6 -8 10 -11 10 -2 0
-4 -4 -4 -10z"/>
<path d="M7029 1723 c-13 -16 -12 -17 4 -4 9 7 17 15 17 17 0 8 -8 3 -21 -13z"/>
<path d="M6856 1713 c-6 -14 -5 -15 5 -6 7 7 10 15 7 18 -3 3 -9 -2 -12 -12z"/>
<path d="M6910 1726 c0 -2 7 -7 16 -10 8 -3 12 -2 9 4 -6 10 -25 14 -25 6z"/>
<path d="M6953 1715 c0 -8 4 -12 9 -9 5 3 6 10 3 15 -9 13 -12 11 -12 -6z"/>
<path d="M7130 1720 c0 -5 5 -10 11 -10 5 0 7 5 4 10 -3 6 -8 10 -11 10 -2 0
-4 -4 -4 -10z"/>
<path d="M6855 1680 c-3 -5 -1 -10 4 -10 6 0 11 5 11 10 0 6 -2 10 -4 10 -3 0
-8 -4 -11 -10z"/>
<path d="M6770 1659 c0 -5 5 -7 10 -4 6 3 10 8 10 11 0 2 -4 4 -10 4 -5 0 -10
-5 -10 -11z"/>
<path d="M6893 1655 c0 -8 4 -12 9 -9 5 3 6 10 3 15 -9 13 -12 11 -12 -6z"/>
<path d="M6595 1649 c-4 -6 -5 -12 -2 -15 2 -3 7 2 10 11 7 17 1 20 -8 4z"/>
<path d="M6690 1640 c0 -5 5 -10 11 -10 5 0 7 5 4 10 -3 6 -8 10 -11 10 -2 0
-4 -4 -4 -10z"/>
<path d="M6959 1633 c-13 -16 -12 -17 4 -4 16 13 21 21 13 21 -2 0 -10 -8 -17
-17z"/>
<path d="M6535 1620 c3 -5 8 -10 11 -10 2 0 4 5 4 10 0 6 -5 10 -11 10 -5 0
-7 -4 -4 -10z"/>
<path d="M6534 1582 c3 -6 -2 -15 -11 -21 -10 -6 -13 -11 -7 -11 20 0 37 27
23 36 -7 4 -9 3 -5 -4z"/>
<path d="M6457 1555 c-4 -8 -3 -16 1 -19 4 -3 9 4 9 15 2 23 -3 25 -10 4z"/>
<path d="M6476 1473 c-6 -14 -5 -15 5 -6 7 7 10 15 7 18 -3 3 -9 -2 -12 -12z"/>
<path d="M5190 1446 c0 -2 7 -7 16 -10 8 -3 12 -2 9 4 -6 10 -25 14 -25 6z"/>
<path d="M4919 1393 c-13 -16 -12 -17 4 -4 16 13 21 21 13 21 -2 0 -10 -8 -17
-17z"/>
<path d="M4950 1401 c0 -6 4 -13 10 -16 6 -3 7 1 4 9 -7 18 -14 21 -14 7z"/>
<path d="M4974 1402 c4 -3 14 -7 22 -8 9 -1 13 0 10 4 -4 3 -14 7 -22 8 -9 1
-13 0 -10 -4z"/>
<path d="M5024 1402 c4 -3 14 -7 22 -8 9 -1 13 0 10 4 -4 3 -14 7 -22 8 -9 1
-13 0 -10 -4z"/>
<path d="M4827 1379 c7 -7 15 -10 18 -7 3 3 -2 9 -12 12 -14 6 -15 5 -6 -5z"/>
<path d="M5130 1379 c0 -5 5 -7 10 -4 6 3 10 8 10 11 0 2 -4 4 -10 4 -5 0 -10
-5 -10 -11z"/>
<path d="M4695 1351 c-3 -5 -2 -12 3 -15 5 -3 9 1 9 9 0 17 -3 19 -12 6z"/>
<path d="M4730 1339 c0 -5 5 -7 10 -4 6 3 10 8 10 11 0 2 -4 4 -10 4 -5 0 -10
-5 -10 -11z"/>
<path d="M4795 1339 c-3 -4 2 -6 10 -5 21 3 28 13 10 13 -9 0 -18 -4 -20 -8z"/>
<path d="M4460 1326 c0 -2 8 -10 18 -17 15 -13 16 -12 3 4 -13 16 -21 21 -21
13z"/>
<path d="M4510 1319 c0 -5 5 -7 10 -4 6 3 10 8 10 11 0 2 -4 4 -10 4 -5 0 -10
-5 -10 -11z"/>
<path d="M4570 1320 c0 -5 5 -10 11 -10 5 0 7 5 4 10 -3 6 -8 10 -11 10 -2 0
-4 -4 -4 -10z"/>
<path d="M4655 1320 c-3 -5 -1 -10 4 -10 6 0 11 5 11 10 0 6 -2 10 -4 10 -3 0
-8 -4 -11 -10z"/>
<path d="M4429 1283 c-13 -16 -12 -17 4 -4 16 13 21 21 13 21 -2 0 -10 -8 -17
-17z"/>
<path d="M4795 1289 c-4 -6 -5 -12 -2 -15 2 -3 7 2 10 11 7 17 1 20 -8 4z"/>
<path d="M4113 1275 c0 -8 4 -12 9 -9 5 3 6 10 3 15 -9 13 -12 11 -12 -6z"/>
<path d="M4146 1278 c3 -5 10 -6 15 -3 13 9 11 12 -6 12 -8 0 -12 -4 -9 -9z"/>
<path d="M4630 1280 c0 -5 5 -10 11 -10 5 0 7 5 4 10 -3 6 -8 10 -11 10 -2 0
-4 -4 -4 -10z"/>
<path d="M4290 1260 c0 -5 5 -10 11 -10 5 0 7 5 4 10 -3 6 -8 10 -11 10 -2 0
-4 -4 -4 -10z"/>
<path d="M3976 1247 c3 -10 9 -15 12 -12 3 3 0 11 -7 18 -10 9 -11 8 -5 -6z"/>
<path d="M4046 1238 c3 -5 10 -6 15 -3 13 9 11 12 -6 12 -8 0 -12 -4 -9 -9z"/>
<path d="M4010 1219 c0 -5 5 -7 10 -4 6 3 10 8 10 11 0 2 -4 4 -10 4 -5 0 -10
-5 -10 -11z"/>
<path d="M3710 1201 c0 -6 4 -13 10 -16 6 -3 7 1 4 9 -7 18 -14 21 -14 7z"/>
<path d="M3795 1171 c-3 -5 -2 -12 3 -15 5 -3 9 1 9 9 0 17 -3 19 -12 6z"/>
<path d="M3336 1162 c-2 -4 4 -8 14 -8 10 0 16 4 14 8 -3 4 -9 8 -14 8 -5 0
-11 -4 -14 -8z"/>
<path d="M3519 1153 c-13 -16 -12 -17 4 -4 16 13 21 21 13 21 -2 0 -10 -8 -17
-17z"/>
<path d="M3696 1162 c-3 -5 1 -9 9 -9 8 0 12 4 9 9 -3 4 -7 8 -9 8 -2 0 -6 -4
-9 -8z"/>
<path d="M3573 1143 c4 -3 1 -13 -6 -22 -11 -14 -10 -14 5 -2 16 12 16 31 1
31 -4 0 -3 -3 0 -7z"/>
<path d="M3270 1120 c0 -5 5 -10 11 -10 5 0 7 5 4 10 -3 6 -8 10 -11 10 -2 0
-4 -4 -4 -10z"/>
<path d="M3170 1099 c0 -5 5 -7 10 -4 6 3 10 8 10 11 0 2 -4 4 -10 4 -5 0 -10
-5 -10 -11z"/>
<path d="M3434 1096 c1 -8 5 -18 8 -22 4 -3 5 1 4 10 -1 8 -5 18 -8 22 -4 3
-5 -1 -4 -10z"/>
<path d="M2945 1079 c-3 -4 2 -6 10 -5 21 3 28 13 10 13 -9 0 -18 -4 -20 -8z"/>
<path d="M2996 1082 c-3 -5 1 -9 9 -9 8 0 12 4 9 9 -3 4 -7 8 -9 8 -2 0 -6 -4
-9 -8z"/>
<path d="M3155 1069 c-4 -6 -5 -12 -2 -15 2 -3 7 2 10 11 7 17 1 20 -8 4z"/>
<path d="M3070 1066 c0 -2 7 -7 16 -10 8 -3 12 -2 9 4 -6 10 -25 14 -25 6z"/>
<path d="M2670 1057 c0 -2 6 -10 14 -16 11 -9 16 -9 22 1 4 7 4 10 -1 6 -4 -4
-14 -3 -22 3 -7 6 -13 9 -13 6z"/>
<path d="M2436 1007 c3 -10 9 -15 12 -12 3 3 0 11 -7 18 -10 9 -11 8 -5 -6z"/>
<path d="M2476 1002 c-3 -5 1 -9 9 -9 8 0 12 4 9 9 -3 4 -7 8 -9 8 -2 0 -6 -4
-9 -8z"/>
<path d="M2514 982 c4 -3 14 -7 22 -8 9 -1 13 0 10 4 -4 3 -14 7 -22 8 -9 1
-13 0 -10 -4z"/>
<path d="M1930 941 c0 -6 4 -13 10 -16 6 -3 7 1 4 9 -7 18 -14 21 -14 7z"/>
<path d="M2350 940 c0 -5 5 -10 11 -10 5 0 7 5 4 10 -3 6 -8 10 -11 10 -2 0
-4 -4 -4 -10z"/>
<path d="M2395 941 c-3 -5 -2 -12 3 -15 5 -3 9 1 9 9 0 17 -3 19 -12 6z"/>
<path d="M2046 918 c3 -5 10 -6 15 -3 13 9 11 12 -6 12 -8 0 -12 -4 -9 -9z"/>
<path d="M1930 899 c0 -5 5 -7 10 -4 6 3 10 8 10 11 0 2 -4 4 -10 4 -5 0 -10
-5 -10 -11z"/>
<path d="M2006 902 c-3 -5 1 -9 9 -9 8 0 12 4 9 9 -3 4 -7 8 -9 8 -2 0 -6 -4
-9 -8z"/>
<path d="M1873 885 c0 -8 4 -12 9 -9 5 3 6 10 3 15 -9 13 -12 11 -12 -6z"/>
<path d="M1756 873 c-6 -14 -5 -15 5 -6 7 7 10 15 7 18 -3 3 -9 -2 -12 -12z"/>
<path d="M1461 861 c-10 -7 -7 -9 12 -8 14 1 23 5 20 10 -6 9 -15 9 -32 -2z"/>
<path d="M5350 839 c0 -5 5 -7 10 -4 6 3 10 8 10 11 0 2 -4 4 -10 4 -5 0 -10
-5 -10 -11z"/>
<path d="M1280 820 c-8 -5 -10 -10 -5 -10 6 0 17 5 25 10 8 5 11 10 5 10 -5 0
-17 -5 -25 -10z"/>
<path d="M1410 819 c0 -5 5 -7 10 -4 6 3 10 8 10 11 0 2 -4 4 -10 4 -5 0 -10
-5 -10 -11z"/>
<path d="M1455 820 c3 -5 8 -10 11 -10 2 0 4 5 4 10 0 6 -5 10 -11 10 -5 0 -7
-4 -4 -10z"/>
<path d="M1570 826 c0 -2 7 -7 16 -10 8 -3 12 -2 9 4 -6 10 -25 14 -25 6z"/>
<path d="M5426 801 c8 -8 43 -8 38 0 -2 4 -13 7 -24 6 -10 -1 -17 -3 -14 -6z"/>
<path d="M5775 689 c-4 -6 -5 -12 -2 -15 2 -3 7 2 10 11 7 17 1 20 -8 4z"/>
<path d="M5795 571 c-3 -5 -2 -12 3 -15 5 -3 9 1 9 9 0 17 -3 19 -12 6z"/>
</g>
</svg>
